<mxfile host="app.diagrams.net" modified="2024-11-30T10:16:25.090Z" agent="Mozilla/5.0 (Windows NT 10.0; Win64; x64) AppleWebKit/537.36 (KHTML, like Gecko) Chrome/131.0.0.0 Safari/537.36" etag="7ekOefbSenolp5mmjTZ4" version="24.3.1" type="google">
  <diagram id="C5RBs43oDa-KdzZeNtuy" name="Page-1">
    <mxGraphModel grid="1" page="1" gridSize="10" guides="1" tooltips="1" connect="1" arrows="1" fold="1" pageScale="1" pageWidth="827" pageHeight="1169" math="0" shadow="0">
      <root>
        <mxCell id="WIyWlLk6GJQsqaUBKTNV-0" />
        <mxCell id="WIyWlLk6GJQsqaUBKTNV-1" parent="WIyWlLk6GJQsqaUBKTNV-0" />
        <mxCell id="q9eHKi25cZ7arye9z9oT-3" value="" style="edgeStyle=orthogonalEdgeStyle;rounded=0;orthogonalLoop=1;jettySize=auto;html=1;" edge="1" parent="WIyWlLk6GJQsqaUBKTNV-1" source="WIyWlLk6GJQsqaUBKTNV-3" target="q9eHKi25cZ7arye9z9oT-2">
          <mxGeometry relative="1" as="geometry" />
        </mxCell>
        <mxCell id="WIyWlLk6GJQsqaUBKTNV-3" value="Cards of player" style="rounded=1;whiteSpace=wrap;html=1;fontSize=12;glass=0;strokeWidth=1;shadow=0;" vertex="1" parent="WIyWlLk6GJQsqaUBKTNV-1">
          <mxGeometry x="360" y="10" width="120" height="40" as="geometry" />
        </mxCell>
        <mxCell id="q9eHKi25cZ7arye9z9oT-5" value="" style="edgeStyle=orthogonalEdgeStyle;rounded=0;orthogonalLoop=1;jettySize=auto;html=1;" edge="1" parent="WIyWlLk6GJQsqaUBKTNV-1" source="q9eHKi25cZ7arye9z9oT-2" target="q9eHKi25cZ7arye9z9oT-4">
          <mxGeometry relative="1" as="geometry" />
        </mxCell>
        <mxCell id="q9eHKi25cZ7arye9z9oT-2" value="2 |&amp;nbsp;6&amp;nbsp; | ... | J" style="rounded=1;whiteSpace=wrap;html=1;fontSize=12;glass=0;strokeWidth=1;shadow=0;" vertex="1" parent="WIyWlLk6GJQsqaUBKTNV-1">
          <mxGeometry x="360" y="80" width="120" height="40" as="geometry" />
        </mxCell>
        <mxCell id="q9eHKi25cZ7arye9z9oT-11" style="edgeStyle=orthogonalEdgeStyle;rounded=0;orthogonalLoop=1;jettySize=auto;html=1;entryX=0.5;entryY=0;entryDx=0;entryDy=0;" edge="1" parent="WIyWlLk6GJQsqaUBKTNV-1" source="q9eHKi25cZ7arye9z9oT-4" target="q9eHKi25cZ7arye9z9oT-9">
          <mxGeometry relative="1" as="geometry" />
        </mxCell>
        <mxCell id="q9eHKi25cZ7arye9z9oT-4" value="2 |&amp;nbsp;6&amp;nbsp; | ... | J1 | J2 | ..." style="rounded=1;whiteSpace=wrap;html=1;fontSize=12;glass=0;strokeWidth=1;shadow=0;" vertex="1" parent="WIyWlLk6GJQsqaUBKTNV-1">
          <mxGeometry x="360" y="150" width="120" height="40" as="geometry" />
        </mxCell>
        <mxCell id="q9eHKi25cZ7arye9z9oT-8" value="" style="edgeStyle=orthogonalEdgeStyle;rounded=0;orthogonalLoop=1;jettySize=auto;html=1;" edge="1" parent="WIyWlLk6GJQsqaUBKTNV-1" source="q9eHKi25cZ7arye9z9oT-6" target="q9eHKi25cZ7arye9z9oT-7">
          <mxGeometry relative="1" as="geometry" />
        </mxCell>
        <mxCell id="q9eHKi25cZ7arye9z9oT-6" value="Marbles" style="rounded=1;whiteSpace=wrap;html=1;fontSize=12;glass=0;strokeWidth=1;shadow=0;" vertex="1" parent="WIyWlLk6GJQsqaUBKTNV-1">
          <mxGeometry x="160" y="10" width="120" height="40" as="geometry" />
        </mxCell>
        <mxCell id="q9eHKi25cZ7arye9z9oT-10" value="" style="edgeStyle=orthogonalEdgeStyle;rounded=0;orthogonalLoop=1;jettySize=auto;html=1;" edge="1" parent="WIyWlLk6GJQsqaUBKTNV-1" source="q9eHKi25cZ7arye9z9oT-7" target="q9eHKi25cZ7arye9z9oT-9">
          <mxGeometry relative="1" as="geometry" />
        </mxCell>
        <mxCell id="q9eHKi25cZ7arye9z9oT-7" value="M1 | M2 | M3 | M4" style="rounded=1;whiteSpace=wrap;html=1;fontSize=12;glass=0;strokeWidth=1;shadow=0;" vertex="1" parent="WIyWlLk6GJQsqaUBKTNV-1">
          <mxGeometry x="160" y="150" width="120" height="40" as="geometry" />
        </mxCell>
        <mxCell id="q9eHKi25cZ7arye9z9oT-16" style="edgeStyle=orthogonalEdgeStyle;rounded=0;orthogonalLoop=1;jettySize=auto;html=1;entryX=1;entryY=0.5;entryDx=0;entryDy=0;" edge="1" parent="WIyWlLk6GJQsqaUBKTNV-1" source="q9eHKi25cZ7arye9z9oT-9" target="q9eHKi25cZ7arye9z9oT-13">
          <mxGeometry relative="1" as="geometry" />
        </mxCell>
        <mxCell id="q9eHKi25cZ7arye9z9oT-57" value="For each combination" style="edgeLabel;html=1;align=center;verticalAlign=middle;resizable=0;points=[];" vertex="1" connectable="0" parent="q9eHKi25cZ7arye9z9oT-16">
          <mxGeometry x="-0.6918" y="-1" relative="1" as="geometry">
            <mxPoint y="-1" as="offset" />
          </mxGeometry>
        </mxCell>
        <mxCell id="q9eHKi25cZ7arye9z9oT-9" value="Combination&lt;br&gt;(Card + Marble)&lt;div&gt;2 + M1 | 2 + M2 | ....&lt;/div&gt;" style="rounded=1;whiteSpace=wrap;html=1;fontSize=12;glass=0;strokeWidth=1;shadow=0;fillColor=#fff2cc;strokeColor=#d6b656;" vertex="1" parent="WIyWlLk6GJQsqaUBKTNV-1">
          <mxGeometry x="260" y="240" width="120" height="50" as="geometry" />
        </mxCell>
        <mxCell id="q9eHKi25cZ7arye9z9oT-27" value="" style="edgeStyle=orthogonalEdgeStyle;rounded=0;orthogonalLoop=1;jettySize=auto;html=1;" edge="1" parent="WIyWlLk6GJQsqaUBKTNV-1" source="q9eHKi25cZ7arye9z9oT-12" target="q9eHKi25cZ7arye9z9oT-26">
          <mxGeometry relative="1" as="geometry" />
        </mxCell>
        <mxCell id="q9eHKi25cZ7arye9z9oT-12" value="Check action function" style="swimlane;fontStyle=0;childLayout=stackLayout;horizontal=1;startSize=30;horizontalStack=0;resizeParent=1;resizeParentMax=0;resizeLast=0;collapsible=1;marginBottom=0;whiteSpace=wrap;html=1;fillColor=#dae8fc;strokeColor=#6c8ebf;" vertex="1" parent="WIyWlLk6GJQsqaUBKTNV-1">
          <mxGeometry x="70" y="330" width="140" height="150" as="geometry">
            <mxRectangle x="70" y="330" width="160" height="30" as="alternateBounds" />
          </mxGeometry>
        </mxCell>
        <mxCell id="q9eHKi25cZ7arye9z9oT-13" value="Card + Marble&amp;nbsp;" style="text;strokeColor=#d79b00;fillColor=#ffe6cc;align=left;verticalAlign=middle;spacingLeft=4;spacingRight=4;overflow=hidden;points=[[0,0.5],[1,0.5]];portConstraint=eastwest;rotatable=0;whiteSpace=wrap;html=1;" vertex="1" parent="q9eHKi25cZ7arye9z9oT-12">
          <mxGeometry y="30" width="140" height="30" as="geometry" />
        </mxCell>
        <mxCell id="q9eHKi25cZ7arye9z9oT-14" value="Game_state" style="text;strokeColor=#3A5431;fillColor=#6d8764;align=left;verticalAlign=middle;spacingLeft=4;spacingRight=4;overflow=hidden;points=[[0,0.5],[1,0.5]];portConstraint=eastwest;rotatable=0;whiteSpace=wrap;html=1;fontColor=#ffffff;" vertex="1" parent="q9eHKi25cZ7arye9z9oT-12">
          <mxGeometry y="60" width="140" height="30" as="geometry" />
        </mxCell>
        <mxCell id="q9eHKi25cZ7arye9z9oT-15" value="Item 3" style="text;strokeColor=default;fillColor=none;align=left;verticalAlign=middle;spacingLeft=4;spacingRight=4;overflow=hidden;points=[[0,0.5],[1,0.5]];portConstraint=eastwest;rotatable=0;whiteSpace=wrap;html=1;" vertex="1" parent="q9eHKi25cZ7arye9z9oT-12">
          <mxGeometry y="90" width="140" height="30" as="geometry" />
        </mxCell>
        <mxCell id="q9eHKi25cZ7arye9z9oT-20" value="Item 4" style="text;strokeColor=none;fillColor=none;align=left;verticalAlign=middle;spacingLeft=4;spacingRight=4;overflow=hidden;points=[[0,0.5],[1,0.5]];portConstraint=eastwest;rotatable=0;whiteSpace=wrap;html=1;" vertex="1" parent="q9eHKi25cZ7arye9z9oT-12">
          <mxGeometry y="120" width="140" height="30" as="geometry" />
        </mxCell>
        <mxCell id="q9eHKi25cZ7arye9z9oT-18" style="edgeStyle=orthogonalEdgeStyle;rounded=0;orthogonalLoop=1;jettySize=auto;html=1;" edge="1" parent="WIyWlLk6GJQsqaUBKTNV-1" source="q9eHKi25cZ7arye9z9oT-17" target="q9eHKi25cZ7arye9z9oT-14">
          <mxGeometry relative="1" as="geometry" />
        </mxCell>
        <mxCell id="q9eHKi25cZ7arye9z9oT-17" value="Game_state" style="rounded=0;whiteSpace=wrap;html=1;fillColor=#6d8764;strokeColor=#3A5431;fontColor=#ffffff;" vertex="1" parent="WIyWlLk6GJQsqaUBKTNV-1">
          <mxGeometry x="360" y="370" width="100" height="50" as="geometry" />
        </mxCell>
        <mxCell id="q9eHKi25cZ7arye9z9oT-23" style="edgeStyle=orthogonalEdgeStyle;rounded=0;orthogonalLoop=1;jettySize=auto;html=1;" edge="1" parent="WIyWlLk6GJQsqaUBKTNV-1" source="q9eHKi25cZ7arye9z9oT-21" target="q9eHKi25cZ7arye9z9oT-15">
          <mxGeometry relative="1" as="geometry" />
        </mxCell>
        <mxCell id="q9eHKi25cZ7arye9z9oT-21" value="..." style="rounded=0;whiteSpace=wrap;html=1;" vertex="1" parent="WIyWlLk6GJQsqaUBKTNV-1">
          <mxGeometry x="490" y="410" width="100" height="50" as="geometry" />
        </mxCell>
        <mxCell id="q9eHKi25cZ7arye9z9oT-24" style="edgeStyle=orthogonalEdgeStyle;rounded=0;orthogonalLoop=1;jettySize=auto;html=1;" edge="1" parent="WIyWlLk6GJQsqaUBKTNV-1" source="q9eHKi25cZ7arye9z9oT-22" target="q9eHKi25cZ7arye9z9oT-20">
          <mxGeometry relative="1" as="geometry" />
        </mxCell>
        <mxCell id="q9eHKi25cZ7arye9z9oT-22" value="..." style="rounded=0;whiteSpace=wrap;html=1;" vertex="1" parent="WIyWlLk6GJQsqaUBKTNV-1">
          <mxGeometry x="360" y="450" width="100" height="50" as="geometry" />
        </mxCell>
        <mxCell id="q9eHKi25cZ7arye9z9oT-25" style="edgeStyle=orthogonalEdgeStyle;rounded=0;orthogonalLoop=1;jettySize=auto;html=1;exitX=0.5;exitY=1;exitDx=0;exitDy=0;" edge="1" parent="WIyWlLk6GJQsqaUBKTNV-1" source="q9eHKi25cZ7arye9z9oT-17" target="q9eHKi25cZ7arye9z9oT-17">
          <mxGeometry relative="1" as="geometry" />
        </mxCell>
        <mxCell id="q9eHKi25cZ7arye9z9oT-29" value="" style="edgeStyle=orthogonalEdgeStyle;rounded=0;orthogonalLoop=1;jettySize=auto;html=1;" edge="1" parent="WIyWlLk6GJQsqaUBKTNV-1" source="q9eHKi25cZ7arye9z9oT-26" target="q9eHKi25cZ7arye9z9oT-28">
          <mxGeometry relative="1" as="geometry" />
        </mxCell>
        <mxCell id="q9eHKi25cZ7arye9z9oT-26" value="move_finished = FALSE&lt;div&gt;&lt;br&gt;&lt;/div&gt;&lt;div&gt;test_gamestate = Game_state&lt;/div&gt;" style="whiteSpace=wrap;html=1;fontStyle=0;startSize=30;" vertex="1" parent="WIyWlLk6GJQsqaUBKTNV-1">
          <mxGeometry x="70" y="540" width="190" height="60" as="geometry" />
        </mxCell>
        <mxCell id="q9eHKi25cZ7arye9z9oT-32" value="" style="edgeStyle=orthogonalEdgeStyle;rounded=0;orthogonalLoop=1;jettySize=auto;html=1;entryX=0;entryY=0.5;entryDx=0;entryDy=0;" edge="1" parent="WIyWlLk6GJQsqaUBKTNV-1" source="q9eHKi25cZ7arye9z9oT-28" target="q9eHKi25cZ7arye9z9oT-33">
          <mxGeometry relative="1" as="geometry">
            <mxPoint x="270" y="690" as="targetPoint" />
          </mxGeometry>
        </mxCell>
        <mxCell id="q9eHKi25cZ7arye9z9oT-28" value="move_one()" style="whiteSpace=wrap;html=1;fontStyle=0;startSize=30;fillColor=#dae8fc;strokeColor=#6c8ebf;" vertex="1" parent="WIyWlLk6GJQsqaUBKTNV-1">
          <mxGeometry x="112.5" y="670" width="105" height="40" as="geometry" />
        </mxCell>
        <mxCell id="q9eHKi25cZ7arye9z9oT-58" style="edgeStyle=orthogonalEdgeStyle;rounded=0;orthogonalLoop=1;jettySize=auto;html=1;" edge="1" parent="WIyWlLk6GJQsqaUBKTNV-1" source="q9eHKi25cZ7arye9z9oT-30">
          <mxGeometry relative="1" as="geometry">
            <mxPoint x="460" y="960" as="targetPoint" />
          </mxGeometry>
        </mxCell>
        <mxCell id="q9eHKi25cZ7arye9z9oT-30" value="Action is valid" style="rounded=1;whiteSpace=wrap;html=1;fillColor=#d5e8d4;strokeColor=#82b366;" vertex="1" parent="WIyWlLk6GJQsqaUBKTNV-1">
          <mxGeometry x="280" y="930" width="120" height="60" as="geometry" />
        </mxCell>
        <mxCell id="q9eHKi25cZ7arye9z9oT-35" value="" style="edgeStyle=orthogonalEdgeStyle;rounded=0;orthogonalLoop=1;jettySize=auto;html=1;" edge="1" parent="WIyWlLk6GJQsqaUBKTNV-1" source="q9eHKi25cZ7arye9z9oT-33" target="q9eHKi25cZ7arye9z9oT-34">
          <mxGeometry relative="1" as="geometry" />
        </mxCell>
        <mxCell id="q9eHKi25cZ7arye9z9oT-33" value="is move possible" style="rhombus;whiteSpace=wrap;html=1;fillColor=#f8cecc;strokeColor=#b85450;" vertex="1" parent="WIyWlLk6GJQsqaUBKTNV-1">
          <mxGeometry x="274.5" y="650" width="80" height="80" as="geometry" />
        </mxCell>
        <mxCell id="q9eHKi25cZ7arye9z9oT-46" style="edgeStyle=orthogonalEdgeStyle;rounded=0;orthogonalLoop=1;jettySize=auto;html=1;exitX=0.75;exitY=1;exitDx=0;exitDy=0;entryX=0.5;entryY=0;entryDx=0;entryDy=0;" edge="1" parent="WIyWlLk6GJQsqaUBKTNV-1" source="q9eHKi25cZ7arye9z9oT-34" target="q9eHKi25cZ7arye9z9oT-44">
          <mxGeometry relative="1" as="geometry" />
        </mxCell>
        <mxCell id="q9eHKi25cZ7arye9z9oT-54" style="edgeStyle=orthogonalEdgeStyle;rounded=0;orthogonalLoop=1;jettySize=auto;html=1;exitX=0.25;exitY=1;exitDx=0;exitDy=0;" edge="1" parent="WIyWlLk6GJQsqaUBKTNV-1" source="q9eHKi25cZ7arye9z9oT-34" target="q9eHKi25cZ7arye9z9oT-38">
          <mxGeometry relative="1" as="geometry" />
        </mxCell>
        <mxCell id="q9eHKi25cZ7arye9z9oT-34" value="move -&amp;gt;&amp;nbsp;&lt;div&gt;change test_gamestate&lt;/div&gt;&lt;div&gt;Check if move is finished&lt;/div&gt;" style="whiteSpace=wrap;html=1;" vertex="1" parent="WIyWlLk6GJQsqaUBKTNV-1">
          <mxGeometry x="417" y="655" width="180" height="70" as="geometry" />
        </mxCell>
        <mxCell id="q9eHKi25cZ7arye9z9oT-52" style="edgeStyle=orthogonalEdgeStyle;rounded=0;orthogonalLoop=1;jettySize=auto;html=1;exitX=0.5;exitY=1;exitDx=0;exitDy=0;entryX=0.5;entryY=0;entryDx=0;entryDy=0;" edge="1" parent="WIyWlLk6GJQsqaUBKTNV-1" source="q9eHKi25cZ7arye9z9oT-38" target="q9eHKi25cZ7arye9z9oT-30">
          <mxGeometry relative="1" as="geometry" />
        </mxCell>
        <mxCell id="q9eHKi25cZ7arye9z9oT-53" value="YES" style="edgeLabel;html=1;align=center;verticalAlign=middle;resizable=0;points=[];" vertex="1" connectable="0" parent="q9eHKi25cZ7arye9z9oT-52">
          <mxGeometry x="-0.3497" relative="1" as="geometry">
            <mxPoint as="offset" />
          </mxGeometry>
        </mxCell>
        <mxCell id="q9eHKi25cZ7arye9z9oT-55" style="edgeStyle=orthogonalEdgeStyle;rounded=0;orthogonalLoop=1;jettySize=auto;html=1;exitX=0;exitY=0.5;exitDx=0;exitDy=0;entryX=0.5;entryY=1;entryDx=0;entryDy=0;" edge="1" parent="WIyWlLk6GJQsqaUBKTNV-1" source="q9eHKi25cZ7arye9z9oT-38" target="q9eHKi25cZ7arye9z9oT-28">
          <mxGeometry relative="1" as="geometry" />
        </mxCell>
        <mxCell id="q9eHKi25cZ7arye9z9oT-56" value="NO" style="edgeLabel;html=1;align=center;verticalAlign=middle;resizable=0;points=[];" vertex="1" connectable="0" parent="q9eHKi25cZ7arye9z9oT-55">
          <mxGeometry x="-0.6209" y="-4" relative="1" as="geometry">
            <mxPoint as="offset" />
          </mxGeometry>
        </mxCell>
        <mxCell id="q9eHKi25cZ7arye9z9oT-38" value="move_finished" style="rhombus;whiteSpace=wrap;html=1;fillColor=#f8cecc;strokeColor=#b85450;" vertex="1" parent="WIyWlLk6GJQsqaUBKTNV-1">
          <mxGeometry x="300" y="790" width="80" height="80" as="geometry" />
        </mxCell>
        <mxCell id="q9eHKi25cZ7arye9z9oT-48" value="" style="edgeStyle=orthogonalEdgeStyle;rounded=0;orthogonalLoop=1;jettySize=auto;html=1;" edge="1" parent="WIyWlLk6GJQsqaUBKTNV-1" source="q9eHKi25cZ7arye9z9oT-44" target="q9eHKi25cZ7arye9z9oT-47">
          <mxGeometry relative="1" as="geometry" />
        </mxCell>
        <mxCell id="q9eHKi25cZ7arye9z9oT-44" value="(changed)&lt;br&gt;test_gamestate" style="rounded=0;whiteSpace=wrap;html=1;" vertex="1" parent="WIyWlLk6GJQsqaUBKTNV-1">
          <mxGeometry x="580" y="800" width="120" height="60" as="geometry" />
        </mxCell>
        <mxCell id="q9eHKi25cZ7arye9z9oT-50" value="" style="edgeStyle=orthogonalEdgeStyle;rounded=0;orthogonalLoop=1;jettySize=auto;html=1;entryX=1;entryY=0.5;entryDx=0;entryDy=0;" edge="1" parent="WIyWlLk6GJQsqaUBKTNV-1" source="q9eHKi25cZ7arye9z9oT-47" target="q9eHKi25cZ7arye9z9oT-38">
          <mxGeometry relative="1" as="geometry" />
        </mxCell>
        <mxCell id="q9eHKi25cZ7arye9z9oT-51" value="YES" style="edgeLabel;html=1;align=center;verticalAlign=middle;resizable=0;points=[];" vertex="1" connectable="0" parent="q9eHKi25cZ7arye9z9oT-50">
          <mxGeometry x="-0.1752" y="-2" relative="1" as="geometry">
            <mxPoint x="-1" as="offset" />
          </mxGeometry>
        </mxCell>
        <mxCell id="q9eHKi25cZ7arye9z9oT-47" value="is_valid" style="rhombus;whiteSpace=wrap;html=1;rounded=0;fillColor=#f8cecc;strokeColor=#b85450;" vertex="1" parent="WIyWlLk6GJQsqaUBKTNV-1">
          <mxGeometry x="460" y="790" width="80" height="80" as="geometry" />
        </mxCell>
        <mxCell id="q9eHKi25cZ7arye9z9oT-60" value="Add to list of possible actions" style="rounded=1;whiteSpace=wrap;html=1;fillColor=#d5e8d4;strokeColor=#82b366;" vertex="1" parent="WIyWlLk6GJQsqaUBKTNV-1">
          <mxGeometry x="460" y="930" width="120" height="60" as="geometry" />
        </mxCell>
      </root>
    </mxGraphModel>
  </diagram>
</mxfile>
